<?xml version="1.0" encoding="utf-8"?>
<!-- Generator: Adobe Illustrator 23.0.3, SVG Export Plug-In . SVG Version: 6.00 Build 0)  -->
<svg version="1.1" id="regular" xmlns="http://www.w3.org/2000/svg" xmlns:xlink="http://www.w3.org/1999/xlink" x="0px" y="0px"
	 viewBox="0 0 512 512" style="enable-background:new 0 0 512 512;" xml:space="preserve">
<style type="text/css">
	.st0{display:none;}
	.st1{display:inline;fill:#1677F0;}
	.st2{display:inline;fill:#FFFFFF;}
	.st3{display:inline;}
	.st4{clip-path:url(#SVGID_2_);}
	.st5{clip-path:url(#SVGID_4_);}
	.st6{fill:#FFFFFF;}
	.st7{fill:url(#SVGID_5_);}
	.st8{fill:#C1DAEA;}
	.st9{fill:#9CC6D9;}
	.st10{fill-rule:evenodd;clip-rule:evenodd;fill:#FFE700;}
	.st11{fill:#FFE700;}
	.st12{display:inline;fill:#1BCC21;}
	.st13{display:none;fill:#2851E8;}
	.st14{display:inline;fill:none;stroke:#FFFFFF;stroke-width:20;stroke-miterlimit:10;}
</style>
<g class="st0">
	<path class="st1" d="M504,256C504,119,393,8,256,8S8,119,8,256c0,123.8,90.7,226.4,209.3,245V327.7h-63V256h63v-54.6
		c0-62.2,37-96.5,93.7-96.5c27.1,0,55.5,4.8,55.5,4.8v61h-31.3c-30.8,0-40.4,19.1-40.4,38.7V256h68.8l-11,71.7h-57.8V501
		C413.3,482.4,504,379.8,504,256z"/>
	<path class="st2" d="M352.5,327.7l11-71.7h-68.8v-46.5c0-19.6,9.6-38.7,40.4-38.7h31.3v-61c0,0-28.4-4.8-55.5-4.8
		c-56.7,0-93.7,34.3-93.7,96.5V256h-63v71.7h63V501c12.6,2,25.6,3,38.8,3c13.2,0,26.1-1,38.8-3V327.7H352.5z"/>
</g>
<g class="st0">
	<g class="st3">
		<g>
			<defs>
				<circle id="SVGID_1_" cx="256" cy="256" r="248"/>
			</defs>
			<clipPath id="SVGID_2_">
				<use xlink:href="#SVGID_1_"  style="overflow:visible;"/>
			</clipPath>
			<g class="st4">
				<g>
					<defs>
						<rect id="SVGID_3_" x="-10.4" y="-10.4" width="532.8" height="532.8"/>
					</defs>
					<clipPath id="SVGID_4_">
						<use xlink:href="#SVGID_3_"  style="overflow:visible;"/>
					</clipPath>
					<g transform="matrix(1 0 0 1 0 0)" class="st5">
						
							<image style="overflow:visible;enable-background:new    ;" width="306" height="305" xlink:href="ED91E6EB.jpg"  transform="matrix(1.7523 0 0 1.7523 -12.0916 -11.8253)">
						</image>
					</g>
				</g>
			</g>
		</g>
	</g>
	<g class="st3">
		<g>
			<path class="st6" d="M256,128c41.7,0,46.6,0.2,63.1,0.9c15.2,0.7,23.5,3.2,29,5.4c7.3,2.8,12.5,6.2,18,11.7s8.8,10.7,11.7,18
				c2.1,5.5,4.7,13.8,5.4,29c0.8,16.5,0.9,21.4,0.9,63.1s-0.2,46.6-0.9,63.1c-0.7,15.2-3.2,23.5-5.4,29c-2.8,7.3-6.2,12.5-11.7,18
				s-10.7,8.8-18,11.7c-5.5,2.1-13.8,4.7-29,5.4c-16.5,0.8-21.4,0.9-63.1,0.9s-46.6-0.2-63.1-0.9c-15.2-0.7-23.5-3.2-29-5.4
				c-7.3-2.8-12.5-6.2-18-11.7s-8.8-10.7-11.7-18c-2.1-5.5-4.7-13.8-5.4-29c-0.8-16.5-0.9-21.4-0.9-63.1s0.2-46.6,0.9-63.1
				c0.7-15.2,3.2-23.5,5.4-29c2.8-7.3,6.2-12.5,11.7-18s10.7-8.8,18-11.7c5.5-2.1,13.8-4.7,29-5.4C209.4,128.1,214.3,128,256,128
				 M256,99.8c-42.4,0-47.7,0.2-64.4,0.9c-16.6,0.8-28,3.4-37.9,7.3c-10.3,4-19,9.3-27.7,18s-14,17.4-18,27.7
				c-3.9,9.9-6.5,21.3-7.3,37.9c-0.8,16.7-0.9,22-0.9,64.4s0.2,47.7,0.9,64.4c0.8,16.6,3.4,28,7.3,37.9c4,10.3,9.3,19,18,27.7
				s17.4,14,27.7,18c9.9,3.9,21.3,6.5,37.9,7.3c16.7,0.8,22,0.9,64.4,0.9s47.7-0.2,64.4-0.9c16.6-0.8,28-3.4,37.9-7.3
				c10.3-4,19-9.3,27.7-18s14-17.4,18-27.7c3.9-9.9,6.5-21.3,7.3-37.9c0.8-16.7,0.9-22,0.9-64.4s-0.2-47.7-0.9-64.4
				c-0.8-16.6-3.4-28-7.3-37.9c-4-10.3-9.3-19-18-27.7s-17.4-14-27.7-18c-9.9-3.9-21.3-6.5-37.9-7.3C303.7,100,298.4,99.8,256,99.8
				L256,99.8z"/>
			<path class="st6" d="M256,175.8c-44.3,0-80.2,35.9-80.2,80.2s35.9,80.2,80.2,80.2s80.2-35.9,80.2-80.2S300.3,175.8,256,175.8z
				 M256,308.1c-28.7,0-52.1-23.3-52.1-52.1s23.3-52.1,52.1-52.1s52.1,23.3,52.1,52.1S284.7,308.1,256,308.1z"/>
			<circle class="st6" cx="339.4" cy="172.6" r="18.7"/>
		</g>
	</g>
</g>
<g class="st0">
	<g class="st3">
		
			<linearGradient id="SVGID_5_" gradientUnits="userSpaceOnUse" x1="256" y1="10.0315" x2="256" y2="506.0315" gradientTransform="matrix(1 0 0 -1 0 514.0313)">
			<stop  offset="0" style="stop-color:#0093D4"/>
			<stop  offset="1" style="stop-color:#00B1E5"/>
		</linearGradient>
		<circle class="st7" cx="256" cy="256" r="248"/>
		<path class="st8" d="M175.9,274.1l29.4,81.5c0,0,3.7,7.6,7.6,7.6c3.9,0,62.5-61,62.5-61l65.2-125.9L176.9,253L175.9,274.1z"/>
		<path class="st9" d="M214.9,295l-5.6,60c0,0-2.4,18.4,16,0s36-32.6,36-32.6L214.9,295z"/>
		<g>
			<path class="st6" d="M176.4,277l-60.5-19.7c0,0-7.2-2.9-4.9-9.6c0.5-1.4,1.4-2.5,4.3-4.6c13.4-9.3,248.3-93.8,248.3-93.8
				s6.6-2.2,10.5-0.7c1.8,0.7,2.9,1.4,3.9,4.2c0.4,1,0.6,3.2,0.5,5.3c0,1.6-0.2,3-0.4,5.3c-1.4,23.1-44.2,195.3-44.2,195.3
				s-2.6,10.1-11.7,10.4c-3.3,0.1-7.4-0.6-12.3-4.7c-18-15.5-80.2-57.3-94-66.5c-0.8-0.5-1-1.2-1.1-1.8c-0.2-1,0.9-2.2,0.9-2.2
				s108.4-96.3,111.2-106.4c0.2-0.8-0.6-1.2-1.8-0.8c-7.2,2.6-132,81.4-145.7,90.1C178.7,277.4,176.4,277,176.4,277z"/>
		</g>
	</g>
</g>
<g>
	<circle class="st10" cx="256" cy="256" r="248"/>
	<g>
		<g>
			<path d="M258.3,382.6c-10.5,0.1-21-0.4-31.4-1.9c-1.6-0.2-2.8,0.1-4.2,1c-20.6,14.5-41.3,29-62.6,42.5c-2.6,1.6-5.3,3.1-8,4.6
				c-0.9,0.5-2,0.9-3.1,1c-3.4,0.5-5.4-1.5-4.7-4.9c1.3-5.9,3-11.8,4.7-17.6c4.2-14.7,8.4-29.5,12.7-44.2c0.4-1.3,0.2-1.9-1.1-2.6
				c-20.1-10.2-37.8-23.5-52.3-40.8c-14.3-17.2-24-36.6-27.4-58.8c-3.9-25.4,0.5-49.4,12.8-71.9c12-22.1,29.3-39.1,50.2-52.7
				c22.3-14.5,46.8-23.5,72.8-28.2c19.4-3.5,39-4.4,58.7-2.6c37,3.4,71.1,14.8,101.2,37c20,14.7,36.1,32.9,45.8,55.9
				c15.7,36.9,12.4,72.5-8.4,106.5c-13.3,21.8-32.1,38.1-54,50.9c-21,12.2-43.6,19.8-67.5,23.8C281.3,381.5,269.9,382.5,258.3,382.6
				z"/>
			<path class="st11" d="M340.2,234.1c0.4-0.5,0.7-1.2,1.2-1.6c8.7-8.7,17.4-17.4,26.1-26.1c3.3-3.3,7.3-3.8,11.2-1.4
				c3.9,2.4,5.9,6.9,4.7,11c-0.5,1.6-1.4,2.8-2.5,3.9c-7.1,7.1-14.2,14.3-21.4,21.3c-1,1-0.9,1.5-0.1,2.6
				c7.9,10.5,15.9,20.9,23.7,31.4c3.4,4.6,3,10.5-1.1,14c-4.5,4-11.2,3.4-15-1.6c-7.1-9.3-14.1-18.6-21.1-28
				c-0.2-0.2-0.3-0.5-0.5-0.7c-0.8-0.8-1.1-2.4-2.3-2.4c-1-0.1-3.3,3.5-3.3,4.7c0,7,0.1,14,0,21c-0.1,4.9-3.5,8.7-8.4,9.7
				c-4.4,0.9-9-1.6-11-5.8c-0.6-1.4-0.9-2.8-0.9-4.4c0-23.1,0-46.2,0-69.2c0-5.8,4.5-10.3,10.1-10.3s10.1,4.4,10.2,10.3
				c0.1,6.6,0,13.3,0,19.9c0,0.5,0,0.9,0,1.4C339.8,233.8,340,234,340.2,234.1z"/>
			<path class="st11" d="M218.7,274.4c-4.7,0-9.4,0-14.1,0c-1.1,0-1.6,0.3-1.9,1.3c-1.2,3.3-2.5,6.6-3.8,9.9
				c-1.9,5.1-5.5,7.2-11,6.3c-7.1-1.1-9.6-4.7-8.1-12c0.9-4.6,2.9-8.8,4.6-13.1c6.9-18.2,13.8-36.3,20.7-54.4c2-5.3,5.8-8.9,11.4-10
				c6.4-1.3,13.1,2.8,15.7,9.5c3.8,9.9,7.6,19.9,11.4,29.8c4.3,11.2,8.5,22.3,12.7,33.5c1.2,3.1,1.9,6.3,1.6,9.7
				c-0.3,2.9-1.7,5-4.5,6c-2.1,0.7-4.2,1.2-6.4,1.1c-4.1-0.3-7.1-1.8-8.4-6c-1.1-3.4-2.6-6.7-3.8-10.1c-0.4-1.1-0.9-1.6-2.2-1.5
				C228,274.4,223.4,274.4,218.7,274.4z"/>
			<path class="st11" d="M148.3,252.9c0-9.6,0-19.3,0-28.9c0-1.5-0.3-2.1-1.9-2c-4.5,0.1-9,0.1-13.6,0c-5.9,0-10.3-4.2-10.3-9.8
				c0-5.7,4.3-10.1,10.2-10.1c17.2-0.1,34.3,0,51.5,0c5.4,0,9.7,3.8,10.2,8.8s-2.6,9.4-7.4,10.8c-1,0.3-2,0.3-3,0.3
				c-4.5,0-9,0.1-13.6,0c-1.5,0-1.8,0.5-1.8,1.8c0,19.2,0,38.4,0,57.7c0,5.1-2.5,8.8-7,10.2c-6.8,2.1-13.3-2.6-13.4-9.7
				C148.3,272.3,148.3,262.6,148.3,252.9z"/>
			<path class="st11" d="M263.2,246.7c0-11.4,0-22.9,0-34.3c0-5.4,3.9-9.5,9.3-10.2c4.9-0.6,9.7,2.7,11.1,7.6
				c0.3,1.2,0.3,2.5,0.3,3.8c0,18.9,0,37.7,0,56.6c0,1.6,0.4,2,2,2c6.6-0.1,13.3-0.1,19.9,0c5.2,0.1,9.3,4,9.5,8.8
				c0.2,5.1-3.8,9.7-8.9,9.7c-11.4,0.1-22.9,0.1-34.3,0c-5-0.1-8.8-4.3-8.9-9.4C263.2,269.7,263.2,258.2,263.2,246.7z"/>
			<path d="M218.7,227.5c3.5,9.9,6.8,19.2,10.1,28.8c-4.4,0-8.6,0-12.8,0c-2,0-4-0.1-6,0c-1.3,0.1-1.5-0.3-1-1.5
				c2.6-7.3,5.2-14.6,7.8-21.9C217.4,231.3,218,229.7,218.7,227.5z"/>
		</g>
	</g>
</g>
<g class="st0">
	<circle class="st12" cx="256" cy="256" r="248"/>
	<path class="st2" d="M221.1,164.4c8.6-1.1,16.7-2.5,24.9-3.1c36.9-2.9,69.3,8.3,97,32.7c22.1,19.5,35.9,44,41.5,72.9
		c11.1,57.7-18.1,116.1-71.7,141.7c-57.3,27.3-122.2,11.6-161.1-38.9c-16.9-22-26-47.2-26.2-75c-0.4-52.3-0.2-104.6-0.1-156.9
		c0.1-23.9,19.3-44.8,42.7-47.1c25-2.4,48.2,14.2,52.4,38.5c1.6,9.4,0.5,19.3,0.7,28.9C221.2,160,221.1,162.2,221.1,164.4z
		 M221.1,248.2c4.2-2.4,7.5-4.7,11-6.4c3.6-1.7,7.4-3.1,11.2-4c37.9-9.1,72.8,23.6,66.7,62.3c-5.8,36.5-46.6,57-79.2,39.7
		c-19.9-10.6-29.8-27.8-29.9-50.1c-0.3-49.7-0.1-99.3-0.2-149c0-3.5-0.1-7.1-1-10.4c-3.7-12.9-16.4-21-29.6-19.3
		c-14.4,1.9-24.2,12.9-24.2,27.7c-0.1,51.5-0.3,103,0.2,154.5c0.1,10.2,2,20.6,4.8,30.4c18.7,63.6,92.7,96.1,152.2,66.9
		c34.6-17,55.6-44.8,61.6-83.1c4.7-29.9-2.2-57.3-20.1-81.6c-19-25.8-44.9-40.2-76.5-44.1c-14.5-1.8-29-0.5-43,3.8
		c-1.6,0.5-3.7,2.5-3.9,4c-0.5,4.9-0.2,9.9-0.2,14.8c0.7,0.1,1.1,0.3,1.3,0.2c1.4-0.4,2.9-0.7,4.3-1.2c16.3-5.8,33-6.5,49.7-2.6
		c69.8,16.2,95.9,100.7,47.5,153.4c-31.3,34-83.2,39.7-120.9,13c-27.1-19.2-40-46.1-40.1-79.1c-0.1-48.3,0-96.7,0-145
		c0-2.3,0.1-4.7,0.6-6.9c1.4-5.7,7.4-9,12.8-7.4c5,1.5,7.3,5.3,7.3,12.2c0,49-0.1,98,0.1,147c0,6.6,0.2,13.4,1.8,19.8
		c9.1,36.8,43.7,59.8,80.5,54.9c32.3-4.4,61.8-31.4,62.4-70.8c0.3-22.8-9-41.9-26.7-56.8c-20.5-17.2-53.2-21.2-76.6-9
		c-1.6,0.8-3.5,2.9-3.7,4.5C220.9,236,221.1,241.7,221.1,248.2z M290.5,291.3c0.2-18.8-15.2-34.4-34-34.6c-17-0.2-34.7,11.8-35,34.1
		c-0.2,19.9,14.2,34.2,34.4,34.6C274.8,325.8,290.3,310.1,290.5,291.3z"/>
</g>
<circle class="st13" cx="256" cy="256" r="248"/>
<g transform="translate(2 3)" class="st0">
	<path class="st14" d="M307.4,275.9V169c0-16.9-13.7-30.5-30.5-30.5H170c-16.9,0-30.5,13.7-30.5,30.5v106.9
		c0,16.9,13.7,30.5,30.5,30.5h106.9C293.8,306.4,307.4,292.8,307.4,275.9z"/>
	<path class="st14" d="M200.6,306.4V337c0,16.9,13.7,30.5,30.5,30.5H338c16.9,0,30.5-13.7,30.5-30.5V230.1
		c0-16.9-13.7-30.5-30.5-30.5h-30.5"/>
</g>
</svg>
