<svg width="80" height="80" viewBox="0 0 80 80" fill="none" xmlns="http://www.w3.org/2000/svg">
<path fill-rule="evenodd" clip-rule="evenodd" d="M0 40C0 17.9086 17.9086 0 40 0C62.0914 0 80 17.9086 80 40C80 62.0914 62.0914 80 40 80C17.9086 80 0 62.0914 0 40ZM33.3282 27.0269C34.1504 26.5498 35.1644 26.5464 35.9897 27.018L54.6564 37.6847C55.4872 38.1595 56 39.043 56 40C56 40.957 55.4872 41.8405 54.6564 42.3153L35.9897 52.982C35.1644 53.4536 34.1504 53.4502 33.3282 52.9731C32.506 52.496 32 51.6173 32 50.6667V29.3333C32 28.3827 32.506 27.504 33.3282 27.0269Z" fill="white"/>
</svg>
