<svg width="90" height="90" viewBox="0 0 90 90" fill="none" xmlns="http://www.w3.org/2000/svg">
<path d="M32.5195 53.7369C32.5195 58.5744 36.232 62.4744 40.8445 62.4744H50.257C54.2695 62.4744 57.532 59.0619 57.532 54.8619C57.532 50.2869 55.5445 48.6744 52.582 47.6244L37.4695 42.3744C34.507 41.3244 32.5195 39.7119 32.5195 35.1369C32.5195 30.9369 35.782 27.5244 39.7945 27.5244H49.207C53.8195 27.5244 57.532 31.4244 57.532 36.2619" stroke="#F90093" stroke-width="3" stroke-linecap="round" stroke-linejoin="round"/>
<path d="M45 22.5V67.5" stroke="#F90093" stroke-width="3" stroke-linecap="round" stroke-linejoin="round"/>
<path d="M45 82.5C65.7107 82.5 82.5 65.7107 82.5 45C82.5 24.2893 65.7107 7.5 45 7.5C24.2893 7.5 7.5 24.2893 7.5 45C7.5 65.7107 24.2893 82.5 45 82.5Z" stroke="#F90093" stroke-width="3" stroke-linecap="round" stroke-linejoin="round"/>
</svg>
