<svg width="150" height="35" viewBox="0 0 150 35" fill="none" xmlns="http://www.w3.org/2000/svg">
<path d="M23.8184 22.5332C27.9199 20.2773 31.0254 18.5781 31.2891 18.4316C32.1387 17.9629 33.0176 16.7617 31.2891 15.8242C30.7324 15.5312 27.7148 13.8613 23.8184 11.7227L18.4277 17.1426L23.8184 22.5332Z" fill="#FFD900"/>
<path d="M18.4277 17.2012L1.31836 34.457C1.72852 34.5156 2.16797 34.3984 2.69531 34.1055C3.80859 33.4902 15.7324 26.9863 23.8184 22.5332L18.4277 17.2012Z" fill="#F43249"/>
<path d="M18.4277 17.2009L23.8184 11.8103C23.8184 11.8103 3.92578 0.941162 2.69531 0.296631C2.25586 0.032959 1.72852 -0.0549316 1.28906 0.032959L18.4277 17.2009Z" fill="#00EE76"/>
<path d="M18.4277 17.2012L1.28906 0.00390625C0.585938 0.179688 0 0.794922 0 2.05469C0 4.07617 0 30.7656 0 32.4355C0 33.5781 0.46875 34.4277 1.31836 34.4863L18.4277 17.2012Z" fill="#00D3FF"/>
<path d="M74.2676 13.7734C71.1914 13.7734 68.6426 16.1465 68.6426 19.4277C68.6426 22.6797 71.1621 25.082 74.2676 25.082C77.373 25.082 79.8926 22.709 79.8926 19.4277C79.8926 16.1465 77.373 13.7734 74.2676 13.7734ZM74.2676 22.7969C72.5684 22.7969 71.1035 21.3906 71.1035 19.3691C71.1035 17.3477 72.5684 15.9414 74.2676 15.9414C75.9668 15.9414 77.4316 17.3184 77.4316 19.3691C77.4316 21.3906 75.9668 22.7969 74.2676 22.7969ZM62.0508 13.7734C58.9453 13.7734 56.4258 16.1465 56.4258 19.4277C56.4258 22.6797 58.9453 25.082 62.0508 25.082C65.1563 25.082 67.6758 22.709 67.6758 19.4277C67.6758 16.1465 65.1563 13.7734 62.0508 13.7734ZM62.0508 22.7969C60.3516 22.7969 58.8867 21.3906 58.8867 19.3691C58.8867 17.3477 60.3516 15.9414 62.0508 15.9414C63.75 15.9414 65.2148 17.3184 65.2148 19.3691C65.2148 21.3906 63.75 22.7969 62.0508 22.7969ZM47.5195 15.502V17.875H53.2031C53.0566 19.2227 52.5879 20.1895 51.9141 20.8633C51.0938 21.6836 49.8047 22.5918 47.5195 22.5918C44.0039 22.5918 41.3086 19.75 41.3086 16.2637C41.3086 12.748 44.0039 9.87695 47.5195 9.87695C49.4238 9.87695 50.7715 10.6387 51.7969 11.5762L53.4961 9.87695C52.0898 8.5 50.1855 7.47461 47.5195 7.47461C42.7441 7.47461 38.7305 11.4004 38.7305 16.2051C38.7305 20.9805 42.7441 24.9355 47.5195 24.9355C50.127 24.9355 52.0312 24.0859 53.584 22.4746C55.166 20.8926 55.6348 18.666 55.6348 16.8789C55.6348 16.3223 55.5762 15.7949 55.4883 15.3848L47.5195 15.502ZM106.963 17.3477C106.494 16.0879 105.059 13.7734 102.187 13.7734C99.3164 13.7734 96.9141 16.0586 96.9141 19.4277C96.9141 22.5918 99.2871 25.082 102.451 25.082C105.029 25.082 106.494 23.5 107.109 22.5918L105.205 21.3027C104.561 22.2402 103.711 22.8555 102.451 22.8555C101.191 22.8555 100.312 22.2988 99.7559 21.1562L107.227 18.0215L106.963 17.3477ZM99.375 19.252C99.3164 17.084 101.074 15.9707 102.305 15.9707C103.301 15.9707 104.092 16.4395 104.385 17.1719L99.375 19.252ZM93.3105 24.6719H95.7715V8.14844H93.3105V24.6719ZM89.2969 15.0332H89.209C88.6523 14.3594 87.5977 13.7734 86.2793 13.7734C83.4668 13.7734 80.918 16.2637 80.918 19.4277C80.918 22.5918 83.4961 25.0527 86.2793 25.0527C87.627 25.0527 88.6523 24.4668 89.209 23.7637H89.2969V24.5547C89.2969 26.7227 88.1543 27.8652 86.3086 27.8652C84.8145 27.8652 83.877 26.7812 83.4961 25.8438L81.3574 26.752C81.9727 28.2461 83.6133 30.0918 86.3086 30.0918C89.209 30.0918 91.6406 28.3926 91.6406 24.2324V14.0957H89.3262V15.0332H89.2969ZM86.4844 22.7969C84.7852 22.7969 83.3789 21.3906 83.3789 19.3984C83.3789 17.4062 84.7852 15.9707 86.4844 15.9707C88.1543 15.9707 89.4727 17.4062 89.4727 19.3984C89.4727 21.3613 88.125 22.7969 86.4844 22.7969ZM118.447 8.14844H112.559V24.6719H115.02V18.4023H118.447C121.172 18.4023 123.838 16.4102 123.838 13.2754C123.867 10.1406 121.172 8.14844 118.447 8.14844ZM118.535 16.1172H115.049V10.4336H118.535C120.352 10.4336 121.436 11.957 121.436 13.2754C121.406 14.5645 120.352 16.1172 118.535 16.1172ZM133.682 13.7441C131.924 13.7441 130.078 14.5059 129.316 16.293L131.484 17.2012C131.953 16.293 132.832 16 133.74 16C135.029 16 136.318 16.7617 136.348 18.1387V18.2852C135.879 18.0215 134.971 17.6406 133.77 17.6406C131.426 17.6406 129.023 18.959 129.023 21.3613C129.023 23.5879 130.957 24.9941 133.096 24.9941C134.766 24.9941 135.674 24.2324 136.23 23.3535H136.318V24.6426H138.691V18.3145C138.662 15.3848 136.494 13.7441 133.682 13.7441ZM133.389 22.7969C132.598 22.7969 131.455 22.3867 131.455 21.4199C131.455 20.1309 132.832 19.6621 134.063 19.6621C135.146 19.6621 135.645 19.8965 136.318 20.2188C136.113 21.7129 134.795 22.7969 133.389 22.7969ZM147.275 14.125L144.463 21.2734H144.375L141.445 14.125H138.809L143.203 24.1445L140.713 29.7402H143.291L150 14.1543H147.275V14.125ZM125.215 24.6719H127.676V8.14844H125.215V24.6719Z" fill="white"/>
</svg>
