<svg width="17" height="17" viewBox="0 0 17 17" fill="none" xmlns="http://www.w3.org/2000/svg">
<path d="M4.87161 1H2.57895C1.70692 1 1 1.70692 1 2.57895C1 9.99119 7.00881 16 14.4211 16C15.2931 16 16 15.2931 16 14.4211V12.1284C16 11.4469 15.5851 10.834 14.9523 10.5809L12.7559 9.70237C12.1875 9.47502 11.5403 9.57756 11.07 9.96946L10.5026 10.4423C9.84037 10.9941 8.86663 10.95 8.2571 10.3404L6.65957 8.7429C6.05004 8.13337 6.00587 7.15963 6.55771 6.49742L7.03053 5.93003C7.42244 5.45974 7.52498 4.81246 7.29763 4.24407L6.41907 2.04768C6.16597 1.41492 5.55312 1 4.87161 1Z" stroke="white" stroke-width="1.5" stroke-linecap="round" stroke-linejoin="round"/>
</svg>
