<svg width="14" height="17" viewBox="0 0 14 17" fill="none" xmlns="http://www.w3.org/2000/svg">
<path d="M6.83341 7.66732C7.75389 7.66732 8.50008 6.92113 8.50008 6.00065C8.50008 5.08018 7.75389 4.33398 6.83341 4.33398C5.91294 4.33398 5.16675 5.08018 5.16675 6.00065C5.16675 6.92113 5.91294 7.66732 6.83341 7.66732Z" stroke="white" stroke-width="1.5" stroke-linecap="round" stroke-linejoin="round"/>
<path d="M6.83333 16C6.83333 16 12.6667 11.9615 12.6667 6.76923C12.6667 5.23914 12.0521 3.77171 10.9581 2.68977C9.86416 1.60783 8.38043 1 6.83333 1C5.28624 1 3.80251 1.60783 2.70854 2.68977C1.61458 3.77171 1 5.23914 1 6.76923C1 11.9615 6.83333 16 6.83333 16Z" stroke="white" stroke-width="1.5" stroke-linecap="round" stroke-linejoin="round"/>
</svg>
