<svg width="712" height="140" viewBox="0 0 712 140" fill="none" xmlns="http://www.w3.org/2000/svg">
<path d="M0.970235 137H29.7702V91.1C29.7702 77.78 27.2502 57.8 25.6302 44.66H26.3502L37.1502 76.7L55.3302 125.66H72.9702L90.9702 76.7L102.13 44.66H102.85C101.23 57.8 98.7102 77.78 98.7102 91.1V137H128.05V3.08H93.1302L72.6102 60.86C70.0902 68.6 67.9302 77.06 65.2302 85.34H64.3302C61.8102 77.06 59.6502 68.6 56.9502 60.86L35.7102 3.08H0.970235V137ZM212.462 139.52C248.102 139.52 266.102 119.18 266.102 74V3.08H235.142V77.42C235.142 102.8 227.042 111.8 212.462 111.8C197.702 111.8 190.142 102.8 190.142 77.42V3.08H158.102V74C158.102 119.18 176.642 139.52 212.462 139.52ZM335.578 139.52C367.978 139.52 386.698 119.9 386.698 97.58C386.698 78.68 376.798 67.52 360.238 60.86L343.498 54.2C331.618 49.52 323.158 46.64 323.158 39.26C323.158 32.06 329.278 28.1 339.178 28.1C349.618 28.1 357.898 31.7 366.718 38.36L382.738 18.2C371.038 6.5 354.658 0.559997 339.178 0.559997C310.738 0.559997 290.578 18.56 290.578 41.06C290.578 60.5 303.718 72.2 317.758 77.78L334.858 84.98C346.378 89.84 353.758 92.36 353.758 100.1C353.758 107.3 348.178 111.8 336.298 111.8C325.678 111.8 313.258 106.22 303.718 98.12L285.538 120.26C299.398 133.04 318.118 139.52 335.578 139.52ZM408.959 137H441.179V3.08H408.959V137ZM528.588 139.52C546.048 139.52 560.988 132.86 572.328 119.72L555.408 99.56C549.108 106.4 540.468 111.8 529.848 111.8C510.948 111.8 498.708 96.32 498.708 69.68C498.708 43.58 512.928 28.1 530.208 28.1C539.748 28.1 546.768 32.42 553.428 38.54L570.348 18.02C561.168 8.65999 547.128 0.559997 529.668 0.559997C495.648 0.559997 465.768 26.12 465.768 70.76C465.768 116.12 494.568 139.52 528.588 139.52ZM611.747 99.02C611.747 93.44 614.987 88.76 619.667 84.26C627.407 93.62 636.407 102.62 646.307 110.54C641.087 113.42 635.687 115.04 630.647 115.04C619.127 115.04 611.747 108.56 611.747 99.02ZM623.807 35.84C623.807 26.84 629.027 21.62 635.327 21.62C641.267 21.62 644.147 25.22 644.147 31.34C644.147 39.98 637.127 45.56 627.947 50.96C625.247 45.74 623.807 40.52 623.807 35.84ZM711.467 113.6C704.807 112.7 696.887 109.64 688.607 105.5C698.867 91.82 706.067 76.88 710.927 60.68H681.767C678.347 72.92 673.127 83.36 666.647 92C657.287 85.16 648.287 77.42 640.907 69.14C654.947 59.78 668.627 48.98 668.627 31.34C668.627 12.62 655.307 0.559997 634.787 0.559997C611.747 0.559997 597.527 16.76 597.527 35.84C597.527 44.3 600.407 53.66 605.627 63.38C592.667 71.48 581.327 82.28 581.327 101C581.327 121.34 596.627 139.52 626.687 139.52C643.427 139.52 657.647 134.48 668.987 126.2C680.687 132.68 692.747 137.54 703.907 139.52L711.467 113.6Z" fill="url(#paint0_linear_101_797)"/>
<defs>
<linearGradient id="paint0_linear_101_797" x1="7.80624" y1="75.3784" x2="716" y2="72.9735" gradientUnits="userSpaceOnUse">
<stop stop-color="#F90093"/>
<stop offset="0.0001" stop-color="#F90093"/>
<stop offset="1" stop-color="#9A00FF"/>
</linearGradient>
</defs>
</svg>
