<svg width="151" height="35" viewBox="0 0 151 35" fill="none" xmlns="http://www.w3.org/2000/svg">
<path d="M66.9127 4.14074C67.1511 5.75701 67.3757 7.56517 67.5781 9.56794C67.7833 11.5707 67.9635 13.6546 68.1187 15.8222C68.274 17.9898 68.4181 20.1629 68.5512 22.3386C68.6843 24.5171 68.798 26.5658 68.8922 28.4874H63.4139C63.3418 26.1225 63.2448 23.5441 63.1256 20.7575C63.0063 17.9709 62.8261 15.16 62.5849 12.3248C62.1497 13.3086 61.6673 14.3978 61.1377 15.5925C60.6082 16.7871 60.0842 17.9817 59.5658 19.1763C59.0473 20.371 58.5483 21.5143 58.0659 22.6008C57.5835 23.69 57.1731 24.6225 56.8377 25.3955H52.9091C52.5709 24.6225 52.1606 23.6927 51.6809 22.6008C51.1985 21.5116 50.6995 20.3683 50.1811 19.1763C49.6626 17.9817 49.1386 16.7871 48.6091 15.5925C48.0795 14.3978 47.5971 13.3086 47.1619 12.3248C46.9207 15.16 46.7405 17.9709 46.6212 20.7575C46.502 23.5441 46.405 26.1225 46.3329 28.4874H40.8546C40.9516 26.5658 41.0653 24.5171 41.1984 22.3386C41.3287 20.1602 41.4728 17.9871 41.6309 15.8222C41.7861 13.6546 41.9663 11.5707 42.1715 9.56794C42.3739 7.56517 42.5984 5.75431 42.8369 4.14074H48.2071C48.6396 4.91374 49.1386 5.86782 49.707 7.00299C50.2725 8.13816 50.8631 9.37064 51.4786 10.6923C52.094 12.0167 52.7012 13.3681 53.3028 14.7492C53.9044 16.1303 54.47 17.4331 55.0023 18.6493C55.5319 17.4331 56.0974 16.1303 56.7018 14.7492C57.3034 13.3681 57.9134 12.014 58.5261 10.6923C59.1416 9.36793 59.7293 8.13816 60.2977 7.00299C60.8633 5.86782 61.3651 4.91374 61.7976 4.14074H66.9127ZM84.1018 10.2166V25.6414C83.9826 25.6874 83.783 25.7279 83.5058 25.763C83.2285 25.7982 82.9235 25.8333 82.5853 25.8684C82.2498 25.9036 81.8867 25.9333 81.5041 25.9549C81.1187 25.9793 80.7472 25.9901 80.3868 25.9901C78.6817 25.9901 77.4674 25.5117 76.7465 24.5495C76.0257 23.59 75.6653 21.9954 75.6653 19.771V10.2166H72.3134V20.4764C72.3134 21.717 72.4437 22.8467 72.7099 23.8684C72.9733 24.8873 73.4058 25.7711 74.0074 26.5225C74.609 27.2712 75.4019 27.8523 76.3861 28.2604C77.3703 28.6685 78.5847 28.874 80.0263 28.874C81.6843 28.874 83.1426 28.7685 84.404 28.5577C85.6655 28.3469 86.6802 28.1496 87.4482 27.9604V10.2166H84.1018ZM92.5356 11.1842C91.3102 12.1329 90.6975 13.4167 90.6975 15.033C90.6975 15.8519 90.8416 16.5438 91.13 17.106C91.4183 17.6682 91.8036 18.1493 92.2833 18.5466C92.7629 18.9466 93.334 19.2899 93.9939 19.5845C94.6537 19.8791 95.3441 20.1656 96.0677 20.4467C97.5565 21.0332 98.6266 21.5602 99.2754 22.0278C99.9241 22.4981 100.248 23.1305 100.248 23.9251C100.248 24.6981 99.9186 25.2603 99.256 25.6117C98.5934 25.963 97.5814 26.1387 96.2118 26.1387C94.8173 26.1387 93.7 25.9982 92.86 25.7171C92.0171 25.436 91.4072 25.2252 91.0218 25.0846L90.4091 27.8955C90.7446 28.0361 91.3822 28.2415 92.3193 28.5118C93.2564 28.7794 94.5539 28.9145 96.2118 28.9145C98.5906 28.9145 100.423 28.482 101.707 27.6145C102.993 26.7469 103.636 25.4711 103.636 23.7846C103.636 22.9197 103.503 22.1873 103.24 21.5899C102.974 20.9926 102.597 20.4818 102.103 20.0602C101.61 19.6385 101.016 19.2709 100.321 18.952C99.6247 18.6358 98.829 18.3142 97.9418 17.9871C97.2681 17.752 96.6915 17.5304 96.2118 17.3195C95.7294 17.1087 95.3302 16.879 95.003 16.633C94.6787 16.3871 94.4375 16.1114 94.2822 15.806C94.127 15.5006 94.0493 15.1492 94.0493 14.7519C94.0493 13.9789 94.3987 13.4113 95.0945 13.0491C95.7904 12.687 96.6083 12.5032 97.5454 12.5032C98.6266 12.5032 99.5498 12.6032 100.321 12.8005C101.089 13.0005 101.654 13.1924 102.015 13.3816L102.627 10.5707C102.433 10.5004 102.164 10.4193 101.818 10.3247C101.468 10.2328 101.066 10.1436 100.612 10.0625C100.154 9.98146 99.6635 9.91119 99.134 9.85173C98.6044 9.79497 98.0749 9.76524 97.5481 9.76524C95.4328 9.75984 93.761 10.2355 92.5356 11.1842ZM106.556 10.2166H109.908V28.4874H106.556V10.2166ZM106.683 3.20828C107.105 2.82178 107.615 2.62988 108.216 2.62988C108.815 2.62988 109.328 2.82178 109.75 3.20828C110.168 3.59478 110.379 4.11642 110.379 4.77319C110.379 5.42997 110.168 5.94891 109.75 6.33811C109.328 6.72461 108.818 6.9165 108.216 6.9165C107.615 6.9165 107.105 6.7219 106.683 6.33811C106.262 5.95161 106.054 5.42997 106.054 4.77319C106.051 4.11642 106.262 3.59478 106.683 3.20828ZM118.505 10.4815C117.388 10.9626 116.445 11.6302 115.674 12.4842C114.904 13.3383 114.31 14.3519 113.892 15.5222C113.47 16.6925 113.26 17.9817 113.26 19.3872C113.26 20.7926 113.451 22.0764 113.836 23.2332C114.222 24.3927 114.804 25.3928 115.583 26.236C116.365 27.0793 117.324 27.7361 118.466 28.2037C119.608 28.6712 120.936 28.9064 122.45 28.9064C122.93 28.9064 123.429 28.8767 123.947 28.8172C124.463 28.7577 124.951 28.6875 125.408 28.6064C125.863 28.5253 126.273 28.4307 126.634 28.3253C126.994 28.2199 127.269 28.1091 127.463 27.9901L126.994 25.2495C126.587 25.436 126.021 25.6144 125.3 25.7766C124.579 25.9414 123.775 26.0225 122.885 26.0225C121.779 26.0225 120.842 25.863 120.074 25.5468C119.306 25.2306 118.674 24.7792 118.183 24.1927C117.69 23.6089 117.329 22.9062 117.102 22.0845C116.875 21.2656 116.761 20.3629 116.761 19.3791C116.761 17.1763 117.26 15.5033 118.255 14.3546C119.254 13.2086 120.69 12.6329 122.564 12.6329C123.307 12.6329 124.011 12.7032 124.671 12.8437C125.331 12.9843 125.913 13.1735 126.418 13.4059L127.174 10.6301C126.406 10.3247 125.6 10.1031 124.76 9.96255C123.92 9.822 123.077 9.75173 122.237 9.75173C120.864 9.75984 119.622 10.0004 118.505 10.4815ZM134.399 25.6955C135.012 25.9657 135.775 26.1009 136.689 26.1009C137.865 26.1009 138.954 25.8901 139.95 25.4684C140.948 25.0468 141.829 24.4495 142.6 23.6765L135.572 16.7547C135.14 16.9655 134.702 17.2114 134.258 17.4925C133.814 17.7736 133.412 18.1196 133.052 18.5304C132.692 18.9412 132.398 19.425 132.17 19.9872C131.943 20.5494 131.829 21.2061 131.829 21.9548C131.829 22.3764 131.912 22.8332 132.082 23.3251C132.248 23.817 132.525 24.2684 132.911 24.6792C133.288 25.0873 133.787 25.4252 134.399 25.6955ZM134.272 9.37334C134.272 10.8977 135.09 12.3842 136.723 13.8356C137.252 13.5789 137.748 13.2978 138.22 12.9924C138.688 12.687 139.096 12.3356 139.445 11.9383C139.792 11.541 140.069 11.1004 140.274 10.6193C140.479 10.1382 140.582 9.59497 140.582 8.98414C140.582 8.18952 140.31 7.51382 139.77 6.96515C139.229 6.41379 138.489 6.1381 137.554 6.1381C136.498 6.1381 135.686 6.44892 135.12 7.07056C134.555 7.69491 134.272 8.4598 134.272 9.37334ZM134.976 3.99749C135.755 3.7164 136.615 3.57586 137.552 3.57586C138.511 3.57586 139.37 3.7164 140.127 3.99749C140.884 4.27858 141.522 4.65427 142.037 5.12185C142.553 5.58944 142.944 6.15432 143.21 6.80839C143.474 7.46517 143.607 8.15438 143.607 8.88143C143.607 9.70038 143.468 10.4382 143.194 11.095C142.916 11.7518 142.545 12.3491 142.076 12.887C141.608 13.4248 141.073 13.9194 140.471 14.3627C139.869 14.8086 139.235 15.206 138.561 15.5573L144.4 21.3548C145.217 19.8791 145.744 18.2385 145.985 16.4357L148.761 16.7871C148.664 17.7466 148.42 18.7953 148.02 19.9304C147.624 21.0683 147.067 22.1981 146.343 23.3197C147.183 24.2116 147.959 25.09 148.669 25.9549C149.379 26.8225 149.961 27.6658 150.419 28.4847H146.886C146.598 28.0172 146.243 27.5361 145.825 27.0442C145.403 26.5523 144.965 26.0603 144.508 25.5684C143.523 26.5279 142.381 27.3063 141.084 27.9036C139.786 28.501 138.297 28.801 136.615 28.801C135.054 28.801 133.756 28.5848 132.722 28.1496C131.688 27.7172 130.853 27.1658 130.219 26.4982C129.581 25.8306 129.132 25.0982 128.866 24.3008C128.599 23.5035 128.469 22.744 128.469 22.017C128.469 21.1034 128.613 20.2899 128.902 19.5764C129.19 18.8628 129.581 18.2169 130.072 17.6439C130.565 17.0709 131.136 16.5655 131.785 16.133C132.434 15.7006 133.107 15.3195 133.803 14.9897C132.026 13.2572 131.136 11.4653 131.136 9.61389C131.136 8.67602 131.297 7.83275 131.624 7.08408C131.949 6.3354 132.392 5.70295 132.958 5.18672C133.521 4.6786 134.194 4.27858 134.976 3.99749ZM61.7948 4.14074C61.3623 4.91374 60.8605 5.86782 60.2949 7.00299C59.7293 8.13816 59.1388 9.37064 58.5233 10.6923C57.9078 12.0167 57.3007 13.3681 56.6991 14.7492C56.0974 16.1303 55.5291 17.4331 54.9996 18.6493C54.47 17.4331 53.9017 16.1303 53.3 14.7492C52.6984 13.3681 52.0885 12.014 51.4758 10.6923C50.8603 9.36793 50.2698 8.13816 49.7042 7.00299C49.1386 5.86782 48.6396 4.91374 48.2043 4.14074H42.8341C42.5929 5.75701 42.3711 7.56517 42.1687 9.56794C41.9636 11.5707 41.7833 13.6546 41.6281 15.8222C41.4701 17.9898 41.3259 20.1629 41.1956 22.3386C41.0625 24.5171 40.9488 26.5658 40.8518 28.4874H46.3301C46.4022 26.1225 46.4993 23.5441 46.6185 20.7575C46.7377 17.9709 46.9179 15.16 47.1591 12.3248C47.5916 13.3086 48.074 14.3978 48.6063 15.5925C49.1358 16.7871 49.6598 17.9817 50.1783 19.1763C50.6967 20.371 51.1958 21.5143 51.6782 22.6008C52.1606 23.69 52.5709 24.6225 52.9064 25.3955H56.8349C57.1731 24.6225 57.5835 23.6927 58.0631 22.6008C58.5455 21.5116 59.0445 20.3683 59.563 19.1763C60.0814 17.9817 60.6054 16.7871 61.135 15.5925C61.6645 14.3978 62.1469 13.3086 62.5822 12.3248C62.8206 15.16 63.0008 17.9709 63.1228 20.7575C63.242 23.5441 63.339 26.1225 63.4111 28.4874H68.8895C68.7924 26.5658 68.6788 24.5171 68.5485 22.3386C68.4154 20.1602 68.2712 17.9871 68.116 15.8222C67.9579 13.6546 67.7805 11.5707 67.5753 9.56794C67.3702 7.56517 67.1484 5.75431 66.9099 4.14074H61.7948ZM84.1018 10.2166V25.6414C83.9826 25.6874 83.783 25.7279 83.5058 25.763C83.2285 25.7982 82.9235 25.8333 82.5853 25.8684C82.2498 25.9036 81.8867 25.9333 81.5041 25.9549C81.1187 25.9793 80.7472 25.9901 80.3868 25.9901C78.6817 25.9901 77.4674 25.5117 76.7465 24.5495C76.0257 23.59 75.6653 21.9954 75.6653 19.771V10.2166H72.3134V20.4764C72.3134 21.717 72.4437 22.8467 72.7099 23.8684C72.9733 24.8873 73.4058 25.7711 74.0074 26.5225C74.609 27.2712 75.4019 27.8523 76.3861 28.2604C77.3703 28.6685 78.5847 28.874 80.0263 28.874C81.6843 28.874 83.1426 28.7685 84.404 28.5577C85.6655 28.3469 86.6802 28.1496 87.4482 27.9604V10.2166H84.1018ZM92.5356 11.1842C91.3102 12.1329 90.6975 13.4167 90.6975 15.033C90.6975 15.8519 90.8416 16.5438 91.13 17.106C91.4183 17.6682 91.8036 18.1493 92.2833 18.5466C92.7629 18.9466 93.334 19.2899 93.9939 19.5845C94.6537 19.8791 95.3441 20.1656 96.0677 20.4467C97.5565 21.0332 98.6266 21.5602 99.2754 22.0278C99.9241 22.4981 100.248 23.1305 100.248 23.9251C100.248 24.6981 99.9186 25.2603 99.256 25.6117C98.5934 25.963 97.5814 26.1387 96.2118 26.1387C94.8173 26.1387 93.7 25.9982 92.86 25.7171C92.0171 25.436 91.4072 25.2252 91.0218 25.0846L90.4091 27.8955C90.7446 28.0361 91.3822 28.2415 92.3193 28.5118C93.2564 28.7794 94.5539 28.9145 96.2118 28.9145C98.5906 28.9145 100.423 28.482 101.707 27.6145C102.993 26.7469 103.636 25.4711 103.636 23.7846C103.636 22.9197 103.503 22.1873 103.24 21.5899C102.974 20.9926 102.597 20.4818 102.103 20.0602C101.61 19.6385 101.016 19.2709 100.321 18.952C99.6247 18.6358 98.829 18.3142 97.9418 17.9871C97.2681 17.752 96.6915 17.5304 96.2118 17.3195C95.7294 17.1087 95.3302 16.879 95.003 16.633C94.6787 16.3871 94.4375 16.1114 94.2822 15.806C94.127 15.5006 94.0493 15.1492 94.0493 14.7519C94.0493 13.9789 94.3987 13.4113 95.0945 13.0491C95.7904 12.687 96.6083 12.5032 97.5454 12.5032C98.6266 12.5032 99.5498 12.6032 100.321 12.8005C101.089 13.0005 101.654 13.1924 102.015 13.3816L102.627 10.5707C102.433 10.5004 102.164 10.4193 101.818 10.3247C101.468 10.2328 101.066 10.1436 100.612 10.0625C100.154 9.98146 99.6635 9.91119 99.134 9.85173C98.6044 9.79497 98.0749 9.76524 97.5481 9.76524C95.4328 9.75984 93.761 10.2355 92.5356 11.1842ZM106.556 10.2166H109.908V28.4874H106.556V10.2166ZM106.683 3.20828C107.105 2.82178 107.615 2.62988 108.216 2.62988C108.815 2.62988 109.328 2.82178 109.75 3.20828C110.168 3.59478 110.379 4.11642 110.379 4.77319C110.379 5.42997 110.168 5.94891 109.75 6.33811C109.328 6.72461 108.818 6.9165 108.216 6.9165C107.615 6.9165 107.105 6.7219 106.683 6.33811C106.262 5.95161 106.054 5.42997 106.054 4.77319C106.051 4.11642 106.262 3.59478 106.683 3.20828ZM118.505 10.4815C117.388 10.9626 116.445 11.6302 115.674 12.4842C114.904 13.3383 114.31 14.3519 113.892 15.5222C113.47 16.6925 113.26 17.9817 113.26 19.3872C113.26 20.7926 113.451 22.0764 113.836 23.2332C114.222 24.3927 114.804 25.3928 115.583 26.236C116.365 27.0793 117.324 27.7361 118.466 28.2037C119.608 28.6712 120.936 28.9064 122.45 28.9064C122.93 28.9064 123.429 28.8767 123.947 28.8172C124.463 28.7577 124.951 28.6875 125.408 28.6064C125.863 28.5253 126.273 28.4307 126.634 28.3253C126.994 28.2199 127.269 28.1091 127.463 27.9901L126.994 25.2495C126.587 25.436 126.021 25.6144 125.3 25.7766C124.579 25.9414 123.775 26.0225 122.885 26.0225C121.779 26.0225 120.842 25.863 120.074 25.5468C119.306 25.2306 118.674 24.7792 118.183 24.1927C117.69 23.6089 117.329 22.9062 117.102 22.0845C116.875 21.2656 116.761 20.3629 116.761 19.3791C116.761 17.1763 117.26 15.5033 118.255 14.3546C119.254 13.2086 120.69 12.6329 122.564 12.6329C123.307 12.6329 124.011 12.7032 124.671 12.8437C125.331 12.9843 125.913 13.1735 126.418 13.4059L127.174 10.6301C126.406 10.3247 125.6 10.1031 124.76 9.96255C123.92 9.822 123.077 9.75173 122.237 9.75173C120.864 9.75984 119.622 10.0004 118.505 10.4815ZM61.7948 4.14074C61.3623 4.91374 60.8605 5.86782 60.2949 7.00299C59.7293 8.13816 59.1388 9.37064 58.5233 10.6923C57.9078 12.0167 57.3007 13.3681 56.6991 14.7492C56.0974 16.1303 55.5291 17.4331 54.9996 18.6493C54.47 17.4331 53.9017 16.1303 53.3 14.7492C52.6984 13.3681 52.0885 12.014 51.4758 10.6923C50.8603 9.36793 50.2698 8.13816 49.7042 7.00299C49.1386 5.86782 48.6396 4.91374 48.2043 4.14074H42.8341C42.5929 5.75701 42.3711 7.56517 42.1687 9.56794C41.9636 11.5707 41.7833 13.6546 41.6281 15.8222C41.4701 17.9898 41.3259 20.1629 41.1956 22.3386C41.0625 24.5171 40.9488 26.5658 40.8518 28.4874H46.3301C46.4022 26.1225 46.4993 23.5441 46.6185 20.7575C46.7377 17.9709 46.9179 15.16 47.1591 12.3248C47.5916 13.3086 48.074 14.3978 48.6063 15.5925C49.1358 16.7871 49.6598 17.9817 50.1783 19.1763C50.6967 20.371 51.1958 21.5143 51.6782 22.6008C52.1606 23.69 52.5709 24.6225 52.9064 25.3955H56.8349C57.1731 24.6225 57.5835 23.6927 58.0631 22.6008C58.5455 21.5116 59.0445 20.3683 59.563 19.1763C60.0814 17.9817 60.6054 16.7871 61.135 15.5925C61.6645 14.3978 62.1469 13.3086 62.5822 12.3248C62.8206 15.16 63.0008 17.9709 63.1228 20.7575C63.242 23.5441 63.339 26.1225 63.4111 28.4874H68.8895C68.7924 26.5658 68.6788 24.5171 68.5485 22.3386C68.4154 20.1602 68.2712 17.9871 68.116 15.8222C67.9579 13.6546 67.7805 11.5707 67.5753 9.56794C67.3702 7.56517 67.1484 5.75431 66.9099 4.14074H61.7948ZM84.1018 10.2166V25.6414C83.9826 25.6874 83.783 25.7279 83.5058 25.763C83.2285 25.7982 82.9235 25.8333 82.5853 25.8684C82.2498 25.9036 81.8867 25.9333 81.5041 25.9549C81.1187 25.9793 80.7472 25.9901 80.3868 25.9901C78.6817 25.9901 77.4674 25.5117 76.7465 24.5495C76.0257 23.59 75.6653 21.9954 75.6653 19.771V10.2166H72.3134V20.4764C72.3134 21.717 72.4437 22.8467 72.7099 23.8684C72.9733 24.8873 73.4058 25.7711 74.0074 26.5225C74.609 27.2712 75.4019 27.8523 76.3861 28.2604C77.3703 28.6685 78.5847 28.874 80.0263 28.874C81.6843 28.874 83.1426 28.7685 84.404 28.5577C85.6655 28.3469 86.6802 28.1496 87.4482 27.9604V10.2166H84.1018ZM92.5356 11.1842C91.3102 12.1329 90.6975 13.4167 90.6975 15.033C90.6975 15.8519 90.8416 16.5438 91.13 17.106C91.4183 17.6682 91.8036 18.1493 92.2833 18.5466C92.7629 18.9466 93.334 19.2899 93.9939 19.5845C94.6537 19.8791 95.3441 20.1656 96.0677 20.4467C97.5565 21.0332 98.6266 21.5602 99.2754 22.0278C99.9241 22.4981 100.248 23.1305 100.248 23.9251C100.248 24.6981 99.9186 25.2603 99.256 25.6117C98.5934 25.963 97.5814 26.1387 96.2118 26.1387C94.8173 26.1387 93.7 25.9982 92.86 25.7171C92.0171 25.436 91.4072 25.2252 91.0218 25.0846L90.4091 27.8955C90.7446 28.0361 91.3822 28.2415 92.3193 28.5118C93.2564 28.7794 94.5539 28.9145 96.2118 28.9145C98.5906 28.9145 100.423 28.482 101.707 27.6145C102.993 26.7469 103.636 25.4711 103.636 23.7846C103.636 22.9197 103.503 22.1873 103.24 21.5899C102.974 20.9926 102.597 20.4818 102.103 20.0602C101.61 19.6385 101.016 19.2709 100.321 18.952C99.6247 18.6358 98.829 18.3142 97.9418 17.9871C97.2681 17.752 96.6915 17.5304 96.2118 17.3195C95.7294 17.1087 95.3302 16.879 95.003 16.633C94.6787 16.3871 94.4375 16.1114 94.2822 15.806C94.127 15.5006 94.0493 15.1492 94.0493 14.7519C94.0493 13.9789 94.3987 13.4113 95.0945 13.0491C95.7904 12.687 96.6083 12.5032 97.5454 12.5032C98.6266 12.5032 99.5498 12.6032 100.321 12.8005C101.089 13.0005 101.654 13.1924 102.015 13.3816L102.627 10.5707C102.433 10.5004 102.164 10.4193 101.818 10.3247C101.468 10.2328 101.066 10.1436 100.612 10.0625C100.154 9.98146 99.6635 9.91119 99.134 9.85173C98.6044 9.79497 98.0749 9.76524 97.5481 9.76524C95.4328 9.75984 93.761 10.2355 92.5356 11.1842ZM106.556 10.2166H109.908V28.4874H106.556V10.2166ZM106.683 3.20828C107.105 2.82178 107.615 2.62988 108.216 2.62988C108.815 2.62988 109.328 2.82178 109.75 3.20828C110.168 3.59478 110.379 4.11642 110.379 4.77319C110.379 5.42997 110.168 5.94891 109.75 6.33811C109.328 6.72461 108.818 6.9165 108.216 6.9165C107.615 6.9165 107.105 6.7219 106.683 6.33811C106.262 5.95161 106.054 5.42997 106.054 4.77319C106.051 4.11642 106.262 3.59478 106.683 3.20828ZM118.505 10.4815C117.388 10.9626 116.445 11.6302 115.674 12.4842C114.904 13.3383 114.31 14.3519 113.892 15.5222C113.47 16.6925 113.26 17.9817 113.26 19.3872C113.26 20.7926 113.451 22.0764 113.836 23.2332C114.222 24.3927 114.804 25.3928 115.583 26.236C116.365 27.0793 117.324 27.7361 118.466 28.2037C119.608 28.6712 120.936 28.9064 122.45 28.9064C122.93 28.9064 123.429 28.8767 123.947 28.8172C124.463 28.7577 124.951 28.6875 125.408 28.6064C125.863 28.5253 126.273 28.4307 126.634 28.3253C126.994 28.2199 127.269 28.1091 127.463 27.9901L126.994 25.2495C126.587 25.436 126.021 25.6144 125.3 25.7766C124.579 25.9414 123.775 26.0225 122.885 26.0225C121.779 26.0225 120.842 25.863 120.074 25.5468C119.306 25.2306 118.674 24.7792 118.183 24.1927C117.69 23.6089 117.329 22.9062 117.102 22.0845C116.875 21.2656 116.761 20.3629 116.761 19.3791C116.761 17.1763 117.26 15.5033 118.255 14.3546C119.254 13.2086 120.69 12.6329 122.564 12.6329C123.307 12.6329 124.011 12.7032 124.671 12.8437C125.331 12.9843 125.913 13.1735 126.418 13.4059L127.174 10.6301C126.406 10.3247 125.6 10.1031 124.76 9.96255C123.92 9.822 123.077 9.75173 122.237 9.75173C120.864 9.75984 119.622 10.0004 118.505 10.4815Z" fill="url(#paint0_linear_141_120)"/>
<path d="M3.21603 16.4086C3.75388 9.36786 9.576 3.67849 16.7982 3.14334C25.4593 2.50008 32.7259 9.19218 32.7259 17.506C32.7259 25.4467 26.1025 31.9091 17.9515 31.9091C9.42629 31.9091 2.57282 24.8413 3.21603 16.4086ZM17.9654 1.77843C13.6875 1.78925 9.58709 3.44876 6.56236 6.3975C3.5404 9.34894 1.83535 13.3437 1.82426 17.5141C1.81317 21.6845 3.49882 25.69 6.50968 28.6523C9.54827 31.5875 13.657 33.2281 17.9349 33.22C22.2128 33.2092 26.3132 31.5496 29.3379 28.6009C32.3627 25.6522 34.0677 21.6547 34.076 17.4843C34.0871 13.3139 32.4015 9.3084 29.3906 6.34615C26.3603 3.41903 22.2682 1.77843 18.0042 1.77843C17.9931 1.77843 17.9793 1.77843 17.9654 1.77843ZM1.57474 16.7465C1.96566 8.57054 8.76922 1.93249 17.1558 1.54329C26.5516 1.10814 34.345 8.4354 34.345 17.506C34.345 26.317 26.9952 33.4875 17.9515 33.4875C8.65001 33.4848 1.13947 25.9008 1.57474 16.7465ZM5.25654 5.12449C1.8908 8.40837 0 12.8572 0 17.5006C0 22.1412 1.8908 26.5927 5.25654 29.8739C7.76837 32.3199 10.965 33.9876 14.4472 34.6633C17.9294 35.339 21.5391 34.993 24.8189 33.6686C28.0987 32.3443 30.9016 30.1009 32.8756 27.2225C34.8495 24.344 35.9003 20.9601 35.9003 17.5006C35.9003 12.8247 34.0372 8.43 30.6438 5.12719C27.278 1.8433 22.7118 0 17.9515 0C13.1913 0 8.62505 1.8433 5.25654 5.12449ZM31.2149 16.8249C30.8739 10.2463 25.39 4.90015 18.6419 4.56501C18.4118 4.5542 18.1789 4.54879 17.9515 4.54879C10.3856 4.54879 4.29728 10.7139 4.68542 18.1735C5.02643 24.7521 10.5103 30.0982 17.2612 30.4334C25.1405 30.8226 31.6169 24.5089 31.2149 16.8249ZM26.6154 13.9734C26.6154 14.1599 26.5378 14.3383 26.4019 14.4707C26.2661 14.6032 26.0831 14.6761 25.8918 14.6788C23.6212 14.6788 21.3866 14.1329 19.3877 13.0869V23.1359C19.3904 24.2764 18.9829 25.3846 18.2399 26.2657C17.4969 27.1468 16.4627 27.7495 15.3149 27.9712C14.1672 28.1928 12.975 28.0171 11.9437 27.4765C10.9123 26.936 10.1055 26.063 9.66194 25.0062C9.21835 23.9494 9.16568 22.7764 9.50946 21.6872C9.85602 20.5979 10.5796 19.6574 11.5555 19.0303C12.5342 18.4033 13.7042 18.1249 14.8686 18.2465C16.033 18.3681 17.117 18.879 17.9377 19.6925V7.63808C17.9377 7.51375 17.9709 7.39212 18.0347 7.28401C18.0985 7.1759 18.1927 7.08671 18.3036 7.02455C18.4145 6.96238 18.5421 6.93265 18.6696 6.93535C18.7971 6.93806 18.9219 6.97319 19.0328 7.03806L19.5485 7.33807C21.4614 8.45973 23.6544 9.04893 25.8863 9.04893C26.0775 9.04893 26.2633 9.12191 26.3992 9.25435C26.535 9.38678 26.6126 9.56517 26.6154 9.75436V13.9734Z" fill="url(#paint1_linear_141_120)"/>
<defs>
<linearGradient id="paint0_linear_141_120" x1="40.8532" y1="15.7693" x2="150.419" y2="15.7693" gradientUnits="userSpaceOnUse">
<stop stop-color="#F90093"/>
<stop offset="1" stop-color="#9A00FF"/>
</linearGradient>
<linearGradient id="paint1_linear_141_120" x1="0" y1="17.4997" x2="35.9011" y2="17.4997" gradientUnits="userSpaceOnUse">
<stop stop-color="#F90093"/>
<stop offset="1" stop-color="#9A00FF"/>
</linearGradient>
</defs>
</svg>
