<svg width="90" height="90" viewBox="0 0 90 90" fill="none" xmlns="http://www.w3.org/2000/svg">
<path d="M9.6748 32.5133C11.9998 25.9133 16.1249 20.1758 21.4499 15.8633" stroke="white" stroke-width="2.5" stroke-linecap="round" stroke-linejoin="round"/>
<path d="M7.5 44.999C7.5 49.3865 8.28745 53.5866 9.67495 57.4866" stroke="white" stroke-width="2.5" stroke-linecap="round" stroke-linejoin="round"/>
<path d="M34.0874 80.888C37.5374 81.938 41.2124 82.5004 44.9999 82.5004C65.6999 82.5004 82.4999 65.7004 82.4999 45.0004C82.4999 42.7504 82.2749 40.5379 81.8999 38.4004" stroke="white" stroke-width="2.5" stroke-linecap="round" stroke-linejoin="round"/>
<path d="M21.45 74.061C19.6875 72.636 18 71.0609 16.5 69.3359" stroke="white" stroke-width="2.5" stroke-linecap="round" stroke-linejoin="round"/>
<path d="M75.8999 23.7741C69.1499 13.9491 57.8249 7.49902 44.9999 7.49902C41.2124 7.49902 37.5374 8.0615 34.0874 9.1115" stroke="white" stroke-width="2.5" stroke-linecap="round" stroke-linejoin="round"/>
<path d="M32.2125 64.1603C35.5055 64.1603 38.175 61.491 38.175 58.198C38.175 54.905 35.5055 52.2354 32.2125 52.2354C28.9195 52.2354 26.25 54.905 26.25 58.198C26.25 61.491 28.9195 64.1603 32.2125 64.1603Z" stroke="white" stroke-width="2.5" stroke-linecap="round" stroke-linejoin="round"/>
<path d="M60.0001 54.2247V30.9371C60.0001 25.9871 56.8876 25.2745 53.7376 26.137L41.8126 29.3997C39.6376 29.9997 38.1377 31.6871 38.1377 34.1996V38.362V41.137V58.1997" stroke="white" stroke-width="2.5" stroke-linecap="round" stroke-linejoin="round"/>
<path d="M54.0377 60.1877C57.3307 60.1877 60.0002 57.5183 60.0002 54.2253C60.0002 50.9323 57.3307 48.2627 54.0377 48.2627C50.7447 48.2627 48.0752 50.9323 48.0752 54.2253C48.0752 57.5183 50.7447 60.1877 54.0377 60.1877Z" stroke="white" stroke-width="2.5" stroke-linecap="round" stroke-linejoin="round"/>
<path d="M38.1748 40.3503L59.9998 34.3877" stroke="white" stroke-width="2.5" stroke-linecap="round" stroke-linejoin="round"/>
</svg>
